<?xml version="1.0" encoding="UTF-8" standalone="no"?>
<!-- Created with Inkscape (http://www.inkscape.org/) -->

<svg
   width="90mm"
   height="90mm"
   viewBox="0 0 90 89.999999"
   version="1.1"
   id="svg1645"
   inkscape:version="1.2.2 (b0a8486541, 2022-12-01)"
   sodipodi:docname="pink.svg"
   xmlns:inkscape="http://www.inkscape.org/namespaces/inkscape"
   xmlns:sodipodi="http://sodipodi.sourceforge.net/DTD/sodipodi-0.dtd"
   xmlns="http://www.w3.org/2000/svg"
   xmlns:svg="http://www.w3.org/2000/svg">
  <sodipodi:namedview
     id="namedview1647"
     pagecolor="#ffffff"
     bordercolor="#000000"
     borderopacity="0.25"
     inkscape:showpageshadow="2"
     inkscape:pageopacity="0.0"
     inkscape:pagecheckerboard="0"
     inkscape:deskcolor="#d1d1d1"
     inkscape:document-units="mm"
     showgrid="false"
     inkscape:zoom="1.9896872"
     inkscape:cx="184.9537"
     inkscape:cy="182.69204"
     inkscape:window-width="1920"
     inkscape:window-height="1065"
     inkscape:window-x="0"
     inkscape:window-y="0"
     inkscape:window-maximized="1"
     inkscape:current-layer="g2438" />
  <defs
     id="defs1642">
    <clipPath
       clipPathUnits="userSpaceOnUse"
       id="clipPath2444">
      <path
         d="M 0,0 H 595.276 V 841.89 H 0 Z"
         id="path2442" />
    </clipPath>
    <clipPath
       clipPathUnits="userSpaceOnUse"
       id="clipPath2512">
      <path
         d="M 0,0 H 595.276 V 841.89 H 0 Z"
         id="path2510" />
    </clipPath>
  </defs>
  <g
     inkscape:label="Layer 1"
     inkscape:groupmode="layer"
     id="layer1"
     transform="translate(-36.873939,-43.520188)">
    <g
       id="g2438"
       transform="matrix(0.35277777,0,0,-0.35277777,-32.135635,216.24398)">
      <path
         d="m 0,0 v 0 m 1.79,4.321 v 0 m -6.111,6.111 v 0 m -6.111,-6.111 v 0 m 6.111,-6.111 v 0"
         style="fill:none;stroke:#ec086d;stroke-width:1;stroke-linecap:round;stroke-linejoin:round;stroke-miterlimit:4;stroke-dasharray:none;stroke-opacity:1"
         id="path2492"
         transform="translate(270.9374,265.583)" />
      <path
         d="m 0,0 v 0 m 1.79,4.321 v 0 m -6.111,6.111 v 0 m -6.111,-6.111 v 0 m 6.111,-6.111 v 0"
         style="fill:none;stroke:#ec086d;stroke-width:1;stroke-linecap:round;stroke-linejoin:round;stroke-miterlimit:4;stroke-dasharray:none;stroke-opacity:1"
         id="path2468"
         transform="translate(242.4883,295.1582)" />
      <g
         id="g2446"
         transform="translate(240.5064,293.8325)">
        <path
           d="M 0,0 C 0.372,0.154 0.726,0.344 1.056,0.565"
           style="fill:none;stroke:#ec086d;stroke-width:1;stroke-linecap:round;stroke-linejoin:round;stroke-miterlimit:4;stroke-dasharray:0, 2.4;stroke-dashoffset:0;stroke-opacity:1"
           id="path2448" />
      </g>
      <g
         id="g2450"
         transform="translate(243.8145,297.1401)">
        <path
           d="M 0,0 C 0.152,0.366 0.269,0.75 0.347,1.147"
           style="fill:none;stroke:#ec086d;stroke-width:1;stroke-linecap:round;stroke-linejoin:round;stroke-miterlimit:4;stroke-dasharray:0, 2.4;stroke-dashoffset:0;stroke-opacity:1"
           id="path2452" />
      </g>
      <g
         id="g2454"
         transform="translate(243.4604,302.5352)">
        <path
           d="M 0,0 C -0.801,1.384 -2.13,2.426 -3.711,2.848"
           style="fill:none;stroke:#ec086d;stroke-width:1;stroke-linecap:round;stroke-linejoin:round;stroke-miterlimit:4;stroke-dasharray:0, 3.2;stroke-dashoffset:0;stroke-opacity:1"
           id="path2456" />
      </g>
      <g
         id="g2458"
         transform="translate(235.1117,304.7725)">
        <path
           d="M 0,0 C -1.384,-0.801 -2.426,-2.13 -2.848,-3.711"
           style="fill:none;stroke:#ec086d;stroke-width:1;stroke-linecap:round;stroke-linejoin:round;stroke-miterlimit:4;stroke-dasharray:0, 3.2;stroke-dashoffset:0;stroke-opacity:1"
           id="path2460" />
      </g>
      <g
         id="g2462"
         transform="translate(232.8745,296.4238)">
        <path
           d="M 0,0 C 0.801,-1.385 2.13,-2.426 3.711,-2.849"
           style="fill:none;stroke:#ec086d;stroke-width:1;stroke-linecap:round;stroke-linejoin:round;stroke-miterlimit:4;stroke-dasharray:0, 3.2;stroke-dashoffset:0;stroke-opacity:1"
           id="path2464" />
      </g>
      <g
         id="g2466"
         transform="translate(242.4883,295.1582)" />
      <g
         id="g2470"
         transform="translate(268.9555,264.2573)">
        <path
           d="M 0,0 C 0.372,0.154 0.726,0.344 1.056,0.565"
           style="fill:none;stroke:#ec086d;stroke-width:1;stroke-linecap:round;stroke-linejoin:round;stroke-miterlimit:4;stroke-dasharray:0, 2.4;stroke-dashoffset:0;stroke-opacity:1"
           id="path2472" />
      </g>
      <g
         id="g2474"
         transform="translate(272.2636,267.5649)">
        <path
           d="M 0,0 C 0.152,0.366 0.269,0.75 0.347,1.147"
           style="fill:none;stroke:#ec086d;stroke-width:1;stroke-linecap:round;stroke-linejoin:round;stroke-miterlimit:4;stroke-dasharray:0, 2.4;stroke-dashoffset:0;stroke-opacity:1"
           id="path2476" />
      </g>
      <g
         id="g2478"
         transform="translate(271.9096,272.96)">
        <path
           d="M 0,0 C -0.801,1.384 -2.13,2.426 -3.711,2.848"
           style="fill:none;stroke:#ec086d;stroke-width:1;stroke-linecap:round;stroke-linejoin:round;stroke-miterlimit:4;stroke-dasharray:0, 3.2;stroke-dashoffset:0;stroke-opacity:1"
           id="path2480" />
      </g>
      <g
         id="g2482"
         transform="translate(263.5608,275.1973)">
        <path
           d="M 0,0 C -1.384,-0.801 -2.426,-2.13 -2.848,-3.711"
           style="fill:none;stroke:#ec086d;stroke-width:1;stroke-linecap:round;stroke-linejoin:round;stroke-miterlimit:4;stroke-dasharray:0, 3.2;stroke-dashoffset:0;stroke-opacity:1"
           id="path2484" />
      </g>
      <g
         id="g2486"
         transform="translate(261.3236,266.8486)">
        <path
           d="M 0,0 C 0.801,-1.385 2.13,-2.426 3.711,-2.849"
           style="fill:none;stroke:#ec086d;stroke-width:1;stroke-linecap:round;stroke-linejoin:round;stroke-miterlimit:4;stroke-dasharray:0, 3.2;stroke-dashoffset:0;stroke-opacity:1"
           id="path2488" />
      </g>
      <g
         id="g2490"
         transform="translate(270.9374,265.583)" />
    </g>
    <g
       id="g2494"
       transform="matrix(0.35277777,0,0,-0.35277777,64.667115,117.91769)">
      <path
         d="M 0,0 9.1,8.938"
         style="fill:none;stroke:#ec086d;stroke-width:1;stroke-linecap:round;stroke-linejoin:round;stroke-miterlimit:4;stroke-dasharray:0, 2.834;stroke-dashoffset:0;stroke-opacity:1"
         id="path2496" />
    </g>
    <g
       id="g2498"
       transform="matrix(0.35277777,0,0,-0.35277777,69.287935,114.41418)">
      <path
         d="M 0,0 H 67.216"
         style="fill:none;stroke:#ec086d;stroke-width:1;stroke-linecap:round;stroke-linejoin:round;stroke-miterlimit:4;stroke-dasharray:0, 2.987;stroke-dashoffset:0;stroke-opacity:1"
         id="path2500" />
    </g>
    <g
       id="g2502"
       transform="matrix(0.35277777,0,0,-0.35277777,63.953725,118.61841)">
      <path
         d="m 0,0 v 0 m 12.133,11.917 v 0 m 71.698,0 v 0"
         style="fill:none;stroke:#ec086d;stroke-width:1;stroke-linecap:round;stroke-linejoin:round;stroke-miterlimit:4;stroke-dasharray:none;stroke-opacity:1"
         id="path2504" />
    </g>
    <g
       id="g2506"
       transform="matrix(0.35277777,0,0,-0.35277777,-32.135635,216.24398)">
      <g
         id="g2508"
         clip-path="url(#clipPath2512)">
        <g
           id="g2514"
           transform="translate(279.0125,334.1235)">
          <path
             d="M 0,0 C 0.372,-0.154 0.726,-0.344 1.056,-0.565"
             style="fill:none;stroke:#ec086d;stroke-width:1;stroke-linecap:round;stroke-linejoin:round;stroke-miterlimit:4;stroke-dasharray:0, 2.4;stroke-dashoffset:0;stroke-opacity:1"
             id="path2516" />
        </g>
        <g
           id="g2518"
           transform="translate(282.3206,330.8159)">
          <path
             d="M 0,0 C 0.152,-0.366 0.269,-0.75 0.347,-1.147"
             style="fill:none;stroke:#ec086d;stroke-width:1;stroke-linecap:round;stroke-linejoin:round;stroke-miterlimit:4;stroke-dasharray:0, 2.4;stroke-dashoffset:0;stroke-opacity:1"
             id="path2520" />
        </g>
        <g
           id="g2522"
           transform="translate(281.9665,325.4209)">
          <path
             d="M 0,0 C -0.801,-1.384 -2.13,-2.426 -3.711,-2.848"
             style="fill:none;stroke:#ec086d;stroke-width:1;stroke-linecap:round;stroke-linejoin:round;stroke-miterlimit:4;stroke-dasharray:0, 3.2;stroke-dashoffset:0;stroke-opacity:1"
             id="path2524" />
        </g>
        <g
           id="g2526"
           transform="translate(273.6177,323.1836)">
          <path
             d="M 0,0 C -1.385,0.801 -2.426,2.13 -2.848,3.711"
             style="fill:none;stroke:#ec086d;stroke-width:1;stroke-linecap:round;stroke-linejoin:round;stroke-miterlimit:4;stroke-dasharray:0, 3.2;stroke-dashoffset:0;stroke-opacity:1"
             id="path2528" />
        </g>
        <g
           id="g2530"
           transform="translate(271.3805,331.5322)">
          <path
             d="M 0,0 C 0.801,1.385 2.13,2.426 3.711,2.849"
             style="fill:none;stroke:#ec086d;stroke-width:1;stroke-linecap:round;stroke-linejoin:round;stroke-miterlimit:4;stroke-dasharray:0, 3.2;stroke-dashoffset:0;stroke-opacity:1"
             id="path2532" />
        </g>
        <g
           id="g2534"
           transform="translate(280.9944,332.7979)">
          <path
             d="m 0,0 v 0 m 1.79,-4.321 v 0 m -6.111,-6.111 v 0 m -6.111,6.111 v 0 m 6.111,6.111 v 0"
             style="fill:none;stroke:#ec086d;stroke-width:1;stroke-linecap:round;stroke-linejoin:round;stroke-miterlimit:4;stroke-dasharray:none;stroke-opacity:1"
             id="path2536" />
        </g>
      </g>
    </g>
    <g
       id="g2538"
       transform="matrix(0.35277777,0,0,-0.35277777,68.070185,103.6195)">
      <path
         d="M 0,0 9.262,-8.776"
         style="fill:none;stroke:#ec086d;stroke-width:1;stroke-linecap:round;stroke-linejoin:round;stroke-miterlimit:4;stroke-dasharray:0, 2.835;stroke-dashoffset:0;stroke-opacity:1"
         id="path2540" />
    </g>
    <g
       id="g2542"
       transform="matrix(0.35277777,0,0,-0.35277777,72.770415,107.05944)">
      <path
         d="M 0,0 H 68.229"
         style="fill:none;stroke:#ec086d;stroke-width:1;stroke-linecap:round;stroke-linejoin:round;stroke-miterlimit:4;stroke-dasharray:0, 3.032;stroke-dashoffset:0;stroke-opacity:1"
         id="path2544" />
    </g>
    <g
       id="g2546"
       transform="matrix(0.35277777,0,0,-0.35277777,67.344095,102.93151)">
      <path
         d="m 0,0 v 0 m 12.349,-11.701 v 0 m 72.778,0 v 0"
         style="fill:none;stroke:#ec086d;stroke-width:1;stroke-linecap:round;stroke-linejoin:round;stroke-miterlimit:4;stroke-dasharray:none;stroke-opacity:1"
         id="path2548" />
    </g>
    <g
       id="g2550"
       transform="matrix(0.35277777,0,0,-0.35277777,56.424245,110.59438)">
      <path
         d="M 0,0 H 96.52"
         style="fill:none;stroke:#ec086d;stroke-width:1;stroke-linecap:round;stroke-linejoin:round;stroke-miterlimit:4;stroke-dasharray:0, 2.97;stroke-dashoffset:0;stroke-opacity:1"
         id="path2552" />
    </g>
    <g
       id="g2554"
       transform="matrix(0.35277777,0,0,-0.35277777,55.376575,110.59438)">
      <path
         d="M 0,0 V 0 M 100.974,0 V 0"
         style="fill:none;stroke:#ec086d;stroke-width:1;stroke-linecap:round;stroke-linejoin:round;stroke-miterlimit:4;stroke-dasharray:none;stroke-opacity:1"
         id="path2556" />
    </g>
  </g>
</svg>
